# xmcd CD database file
#
# Track frame offsets:
#	150
#	17002
#	30987
#	45220
#	61065
#	76820
#	92517
#	109295
#	122220
#	140625
#	150002
#	162550
#	174967
#	193027
#	205715
#
# Disc length: 2984 seconds
#
# Revision: 0
# Processed by: cddbd v1.5.1PL0 Copyright (c) Steve Scherf et al.
# Submitted via: CDex 1.51
#
DISCID=ad0ba60f
DTITLE=Trevor Knight - A little Knight Music [CD1]
DYEAR=1900
DGENRE=Country
TTITLE0=The City of New Orleans
TTITLE1=To all the girls I've loved before
TTITLE2=Help me make it through the night
TTITLE3=He'll have to go
TTITLE4=Some days are diamonds
TTITLE5=Always on my mind
TTITLE6=Me and Bobby McGee
TTITLE7=The days of old Khancoban
TTITLE8=Whose garden was this
TTITLE9=Your cheating heart
TTITLE10=Hello Mary Lou
TTITLE11=Cry of the wild goose
TTITLE12=Casey's last ride
TTITLE13=Perhaps love
TTITLE14=All the children
EXTD=
EXTT0=
EXTT1=
EXTT2=
EXTT3=
EXTT4=
EXTT5=
EXTT6=
EXTT7=
EXTT8=
EXTT9=
EXTT10=
EXTT11=
EXTT12=
EXTT13=
EXTT14=
PLAYORDER=
